#!OML:ASF F:\VICON\USERDATA\INSTALL\rory3\rory3.ASF
:FULLY-SPECIFIED
:DEGREES
501
root 0.483925 16.5069 -14.0407 28.9178 -14.1508 -4.88498
lowerback -15.5062 1.08961 -4.18666
upperback -11.6929 1.85018 2.0431
thorax -4.02407 1.25573 4.7347
lowerneck -10.7648 1.12215 1.86327
upperneck 32.3124 -0.354652 4.39315
head 12.4921 0.593607 1.29891
rclavicle -3.81418e-015 -3.68746e-014
rhumerus -59.9568 19.1819 -99.4337
rradius 25.7268
rwrist -15.3806
rhand 25.8297 -2.17991
rfingers 7.12502
rthumb 49.9218 -23.4436
lclavicle -3.81418e-015 -3.68746e-014
lhumerus -70.368 -46.5221 126.049
lradius 46.2287
lwrist 24.8129
lhand 24.5989 22.7949
lfingers 7.12502
lthumb 48.7927 44.6292
rfemur -18.1714 2.66555 31.6248
rtibia 40.0707
rfoot 13.6297 -25.1227
rtoes 20.2098
lfemur -50.6379 7.50284 -32.1885
ltibia 38.5784
lfoot -52.7648 28.076
ltoes 28.8826
502
root 0.485292 16.5068 -14.0316 28.9772 -14.3314 -4.77847
lowerback -15.4712 1.03475 -4.40278
upperback -11.7418 1.79884 2.05598
thorax -4.10271 1.24669 4.86383
lowerneck -10.6956 1.19037 1.84119
upperneck 32.2995 -0.263152 4.44101
head 12.4703 0.636252 1.33242
rclavicle -2.68484e-014 -4.14466e-014
rhumerus -59.5562 18.4707 -98.5198
rradius 25.3206
rwrist -15.1052
rhand 25.5593 -1.87104
rfingers 7.12502
rthumb 49.6741 -23.2632
lclavicle -2.68484e-014 -4.14466e-014
lhumerus -69.1762 -45.7034 124.522
lradius 45.9459
lwrist 24.7526
lhand 25.3764 23.2269
lfingers 7.12502
lthumb 49.5065 44.7049
rfemur -18.2747 2.75926 31.4455
rtibia 40.0752
rfoot 14.8418 -26.0821
rtoes 24.0808
lfemur -50.7016 7.59773 -32.4048
ltibia 38.5921
lfoot -52.7763 28.0702
ltoes 29.4765
503
root 0.487374 16.5071 -14.0235 28.9484 -14.5068 -4.72611
lowerback -15.4122 1.01403 -4.53503
upperback -11.7651 1.78291 2.07995
thorax -4.16604 1.24996 4.96081
lowerneck -10.3981 1.25887 1.76183
upperneck 32.1695 -0.14871 4.50655
head 12.3505 0.680462 1.38044
rclavicle 1.98288e-014 1.17283e-014
rhumerus -59.0855 17.6819 -97.5146
rradius 24.6581
rwrist -14.7739
rhand 25.3479 -1.63089
rfingers 7.12502
rthumb 49.4804 -23.1222
lclavicle 1.98288e-014 1.17283e-014
lhumerus -68.1176 -44.7967 123.121
lradius 45.5688
lwrist 24.5047
lhand 26.0482 23.2219
lfingers 7.12502
lthumb 50.1217 44.3804
rfemur -18.2359 2.84855 31.3182
rtibia 40.0535
rfoot 14.8168 -26.423
rtoes 25.0917
lfemur -50.6122 7.60667 -32.4803
ltibia 38.6321
lfoot -53.1026 27.5373
ltoes 29.9732
504
root 0.491041 16.5055 -14.0113 28.9784 -14.6476 -4.77445
lowerback -15.45 1.06314 -4.48616
upperback -11.801 1.84217 2.06907
thorax -4.19014 1.27743 4.92857
lowerneck -10.0617 1.28517 1.74652
upperneck 31.9956 -0.103451 4.55904
head 12.2072 0.699196 1.40128
rclavicle -6.84565e-015 -2.00773e-014
rhumerus -58.6497 16.6236 -96.3213
rradius 23.9992
rwrist -14.1871
rhand 25.2448 -1.57126
rfingers 7.12502
rthumb 49.3858 -23.1106
lclavicle -6.84565e-015 -2.00773e-014
lhumerus -67.1853 -44.0003 121.865
lradius 45.1389
lwrist 24.2706
lhand 26.6933 23.2026
lfingers 7.12502
lthumb 50.7111 44.0438
rfemur -18.2289 2.9328 31.2827
rtibia 40.0211
rfoot 13.6704 -25.851
rtoes 21.6425
lfemur -50.5559 7.56708 -32.4186
ltibia 38.6738
lfoot -53.391 27.0255
ltoes 30.5126
505
root 0.493795 16.504 -13.9989 29.0727 -14.7018 -4.87816
lowerback -15.395 1.07921 -4.38319
upperback -11.9131 1.84766 2.09086
thorax -4.33963 1.28024 4.89105
lowerneck -9.93582 1.28882 1.70869
upperneck 32.0244 -0.101091 4.60196
head 12.1923 0.699656 1.42368
rclavicle 2.16427e-014 4.50247e-014
rhumerus -58.1359 15.3023 -94.8075
rradius 23.166
rwrist -13.2986
rhand 25.0773 -1.35922
rfingers 7.12502
rthumb 49.2321 -22.976
lclavicle 2.16427e-014 4.50247e-014
lhumerus -66.1384 -42.9139 120.373
lradius 44.6704
lwrist 23.7943
lhand 27.2004 23.1959
lfingers 7.12502
lthumb 51.1733 43.7801
rfemur -18.2826 2.99669 31.3518
rtibia 39.9723
rfoot 15.5995 -26.2712
rtoes 23.1543
lfemur -50.6207 7.56184 -32.328
ltibia 38.7353
lfoot -53.512 26.8935
ltoes 31.01
506
root 0.493706 16.5037 -13.9915 29.1628 -14.7006 -4.94572
lowerback -15.0448 1.08921 -4.33956
upperback -12.1688 1.83996 2.08266
thorax -4.80496 1.29021 4.84323
lowerneck -9.81517 1.24779 1.69267
upperneck 32.0997 -0.151659 4.58328
head 12.1986 0.672082 1.41313
rclavicle -2.92586e-015 4.77083e-015
rhumerus -57.7813 13.8489 -93.3126
rradius 22.2979
rwrist -12.4783
rhand 24.8925 -1.23207
rfingers 7.12502
rthumb 49.0625 -22.9335
lclavicle -2.92586e-015 4.77083e-015
lhumerus -65.2854 -41.6911 118.994
lradius 44.0551
lwrist 23.2246
lhand 27.4848 23.0101
lfingers 7.12502
lthumb 51.4321 43.4471
rfemur -18.3001 3.17013 31.4283
rtibia 39.9081
rfoot 15.8758 -26.8098
rtoes 24.6076
lfemur -50.7283 7.60931 -32.2879
ltibia 38.8006
lfoot -53.5344 26.8628
ltoes 31.1273
507
root 0.497086 16.5033 -13.9825 29.2877 -14.5889 -4.99651
lowerback -15.2598 1.01012 -4.19772
upperback -12.0679 1.72802 2.09822
thorax -4.5586 1.21544 4.77547
lowerneck -9.82101 1.28495 1.69718
upperneck 31.9383 -0.0876042 4.56872
head 12.1324 0.696541 1.41126
rclavicle -3.77505e-014 -3.6477e-014
rhumerus -56.9556 12.6492 -91.877
rradius 21.5912
rwrist -11.7444
rhand 24.7376 -1.44273
rfingers 7.12502
rthumb 48.9201 -23.2145
lclavicle -3.77505e-014 -3.6477e-014
lhumerus -63.9378 -40.6909 117.318
lradius 43.447
lwrist 22.9448
lhand 27.4532 22.8398
lfingers 7.12502
lthumb 51.4034 43.2932
rfemur -18.3784 3.12073 31.5154
rtibia 39.8366
rfoot 16.017 -26.878
rtoes 24.3418
lfemur -50.8583 7.64281 -32.2909
ltibia 38.8472
lfoot -53.3052 26.7897
ltoes 31.2015
508
root 0.505178 16.5027 -13.9671 29.3561 -14.3312 -5.06791
lowerback -15.2181 0.955509 -3.96525
upperback -12.1288 1.62898 2.11373
thorax -4.62532 1.15265 4.64823
lowerneck -9.66948 1.30745 1.71637
upperneck 31.8915 -0.0456751 4.54813
head 12.0808 0.712463 1.40267
rclavicle 5.54733e-015 3.47873e-015
rhumerus -56.2758 10.7771 -89.805
rradius 20.8342
rwrist -10.1892
rhand 24.6555 -1.37002
rfingers 7.12502
rthumb 48.8447 -23.1789
lclavicle 5.54733e-015 3.47873e-015
lhumerus -62.8034 -39.4158 115.743
lradius 42.7778
lwrist 22.4751
lhand 27.8394 23.2477
lfingers 7.12502
lthumb 51.7543 43.4981
rfemur -18.3763 2.76318 31.648
rtibia 39.7609
rfoot 16.3477 -26.7215
rtoes 23.8518
lfemur -50.871 7.67699 -32.2774
ltibia 38.8732
lfoot -53.0436 26.7098
ltoes 30.9895
509
root 0.510781 16.501 -13.9491 29.3212 -14.146 -4.9644
lowerback -15.0918 0.871094 -4.02625
upperback -12.0869 1.52207 2.14404
thorax -4.63715 1.10375 4.70127
lowerneck -10.1018 1.33702 1.62596
upperneck 32.0222 -0.0224813 4.61311
head 12.2235 0.726916 1.45425
rclavicle -4.20989e-014 -1.23246e-014
rhumerus -55.5314 8.70725 -87.3532
rradius 20.2301
rwrist -8.4136
rhand 24.7016 -0.714586
rfingers 7.12502
rthumb 48.8871 -22.5027
lclavicle -4.20989e-014 -1.23246e-014
lhumerus -61.3381 -38.2174 114.127
lradius 41.9599
lwrist 22.3976
lhand 28.5568 24.0826
lfingers 7.12502
lthumb 52.4048 43.9447
rfemur -18.2657 2.43194 31.5787
rtibia 39.6748
rfoot 16.0221 -26.9083
rtoes 24.608
lfemur -50.7962 7.76699 -32.4824
ltibia 38.8983
lfoot -52.7151 26.7181
ltoes 30.3536
510
root 0.512003 16.4972 -13.9336 29.2288 -14.1845 -4.84073
lowerback -14.9222 0.782285 -4.32424
upperback -11.8019 1.43708 2.23345
thorax -4.41814 1.07389 4.95534
lowerneck -11.5137 1.36152 1.56384
upperneck 32.426 -0.0178268 4.5541
head 12.6893 0.734629 1.47005
rclavicle -7.72775e-015 -1.67973e-014
rhumerus -54.3164 6.65239 -84.7745
rradius 19.321
rwrist -6.60638
rhand 24.55 0.292218
rfingers 7.12502
rthumb 48.7477 -21.5641
lclavicle -7.72775e-015 -1.67973e-014
lhumerus -59.2985 -37.1489 112.28
lradius 41.0584
lwrist 22.44
lhand 29.0019 24.5812
lfingers 7.12502
lthumb 52.8074 44.1948
rfemur -18.1027 2.52186 31.415
rtibia 39.6002
rfoot 15.3439 -27.4854
rtoes 26.1773
lfemur -50.6684 7.77721 -32.633
ltibia 38.9187
lfoot -52.702 26.6598
ltoes 30.4079
